<?xml version="1.0" standalone="no"?>
<!DOCTYPE svg PUBLIC "-//W3C//DTD SVG 20010904//EN"
 "http://www.w3.org/TR/2001/REC-SVG-20010904/DTD/svg10.dtd">
<svg version="1.0" xmlns="http://www.w3.org/2000/svg"
 width="1020.000000pt" height="1020.000000pt" viewBox="0 0 1020.000000 1020.000000"
 preserveAspectRatio="xMidYMid meet">

<g transform="translate(0.000000,1020.000000) scale(0.100000,-0.100000)"
fill="#525252" stroke="none">
<path d="M4800 9579 c-600 -34 -1191 -193 -1735 -466 -205 -103 -283 -148
-480 -279 -503 -334 -915 -746 -1249 -1249 -290 -437 -481 -862 -612 -1365
-245 -935 -168 -1969 213 -2870 213 -505 532 -983 923 -1384 463 -475 1021
-838 1655 -1077 715 -269 1554 -344 2335 -208 1155 200 2189 855 2881 1824
813 1138 1043 2628 613 3967 -224 694 -615 1325 -1140 1838 -649 634 -1471
1056 -2354 1209 -351 61 -686 80 -1050 60z m450 -1605 c183 -50 308 -156 376
-319 20 -47 38 -85 40 -85 2 0 31 19 65 41 44 31 78 45 130 55 101 19 160 9
255 -42 94 -50 152 -109 191 -191 15 -32 29 -60 30 -62 1 -1 39 9 84 24 70 24
92 27 153 22 111 -9 187 -38 260 -97 54 -43 70 -64 102 -133 37 -78 39 -88 42
-194 l4 -113 162 7 c159 6 163 5 246 -22 96 -32 169 -85 262 -188 48 -55 62
-80 92 -167 33 -95 36 -110 36 -221 l0 -120 68 8 c37 4 103 8 147 8 68 0 91
-5 155 -33 63 -27 83 -43 122 -91 66 -81 118 -205 118 -282 0 -65 -14 -101
-54 -138 l-25 -24 -3168 2 c-3563 2 -3251 -5 -3294 79 -17 34 -25 68 -27 124
-4 74 -2 81 29 130 43 67 122 152 178 190 49 35 226 78 281 70 42 -6 50 7 50
89 0 96 80 306 155 407 35 46 50 56 159 105 152 69 215 82 356 74 108 -5 108
-5 114 18 3 13 17 77 31 142 22 102 32 127 70 183 24 36 59 79 77 96 32 30
110 62 204 82 51 11 174 -6 221 -31 18 -9 34 -17 36 -17 3 0 15 29 28 65 24
68 44 90 169 182 103 75 218 89 400 47 36 -8 71 -16 78 -17 7 -1 36 36 65 82
44 72 63 92 122 132 111 74 246 143 295 151 75 11 209 -1 310 -28z m3174
-2984 c15 -5 33 -25 42 -44 16 -32 15 -46 -15 -262 -35 -253 -62 -355 -142
-543 -151 -351 -408 -691 -734 -970 -509 -437 -1205 -732 -1932 -821 -235 -29
-851 -29 -1086 0 -439 53 -836 171 -1232 365 -355 174 -635 374 -901 647 -245
251 -415 501 -538 790 -76 179 -103 283 -137 532 -29 216 -30 231 -15 263 9
18 26 38 38 43 32 12 6619 13 6652 0z"/>
<path d="M5919 7165 c-14 -8 -47 -39 -72 -71 -38 -46 -47 -64 -47 -96 0 -21 6
-51 14 -66 18 -35 506 -463 548 -480 19 -8 45 -11 66 -7 61 11 162 125 162
183 0 56 -26 84 -277 303 -140 123 -265 229 -277 236 -28 16 -85 15 -117 -2z"/>
<path d="M4205 7138 c-11 -6 -54 -41 -96 -77 -436 -379 -438 -381 -450 -420
-16 -55 0 -96 66 -164 50 -53 57 -57 100 -57 25 0 56 5 68 12 44 23 532 451
541 474 11 28 6 94 -8 122 -8 15 -37 49 -65 75 -44 41 -56 47 -93 47 -24 0
-52 -6 -63 -12z"/>
<path d="M4900 6584 c-267 -86 -298 -98 -327 -129 -40 -42 -44 -95 -12 -179
26 -71 66 -106 121 -106 38 0 568 163 619 190 28 15 59 69 59 102 0 56 -42
158 -74 183 -58 43 -70 41 -386 -61z"/>
</g>
</svg>
