<?xml version="1.0" encoding="UTF-8" standalone="no"?><svg xmlns:svg="http://www.w3.org/2000/svg" xmlns="http://www.w3.org/2000/svg" version="1.1" style="overflow:visible" viewBox="-250 -250 500 500" height="2000px" width="2000px"><rect fill-opacity="0" fill="rgb(0,0,0)" height="500" width="500" y="-250" x="-250" /><svg version="1.1" y="-250" x="-250" viewBox="-250 -250 500 500" height="500px" width="500px" style="overflow:visible"><g transform="rotate(0,0,0)" stroke-linejoin="round" fill="#fff"><path stroke-linecap="butt" stroke-linejoin="round" stroke-width="6" stroke-opacity="1" stroke="rgb(68,68,68)" fill="rgb(141,134,134)" d="m84.644999 119.74a84.6467 41.6557 0 0 1-84.6467 41.6557a84.6467 41.6557 0 0 1-84.6467-41.6557a84.6467 41.6557 0 0 1 84.6467-41.6557a84.6467 41.6557 0 0 1 84.6467 41.6557z" /><path stroke-linecap="butt" stroke-linejoin="round" stroke-width="6" stroke-opacity="1" stroke="rgb(68,68,68)" fill="rgb(141,134,134)" d="m-191.3773-37.938s25.4819 111.599 63.9301 137.955c42.8018 29.3397 82.1654 39.8446 127.448 39.8446c45.2818 0 84.6467-10.5049 127.448-39.8446c38.4469-26.3559 63.9288-137.955 63.9288-137.955h-191.378z" /><path stroke-linecap="butt" stroke-linejoin="round" stroke="none" fill="rgb(141,134,134)" d="m0-161.394c-107.699 0-195.005 47.3528-195 105.764c0.07955 14.5412 5.68725 28.9174 16.4727 42.2302l353.958 3.64758c12.7975-14.3006 19.4864-29.9818 19.5698-45.8778v-0.005c0.00005-58.4091-87.3044-105.759-195-105.759z" /><path stroke-linecap="butt" stroke-linejoin="round" stroke="none" fill="rgb(255,255,255)" d="m16.992999-131.472001c-2.98313 0.11931-5.94699 3.40762-7.75174 11.8078l0.005 0.002c-4.11722-0.58233-8.43223 1.76001-12.3768 3.77311c-0.51743-11.0892-18.7882-18.855-14.8786 2.03835c-7.19024-4.00903-20.4828-1.42128-24.5301 5.98494c-8.04424-9.32726-18.4262-2.99795-21.0932 3.2002c-9.39047-15.0645-17.4576-10.9157-18.1718 5.23396c-20.5634-6.14056-22.3688 5.79829-21.6884 14.4213c-8.41689-6.0688-16.7684-6.57282-21.3259 4.83451c-8.86888-4.2363-13.4306-0.13005-17.3987 5.41658c-16.7499-13.7929-27.2891 1.65016-7.32298 18.2219c-12.4841 0.49306-17.3704 3.73309-16.3382 16.866c-10.1985-7.09029-17.8966 9.64334-5.11081 15.9872c-2.30709 1.01828-5.96372 6.26233-7.53736 10.283a195 105.759 0 0 0 178.527 63.5334a195 105.759 0 0 0 175.43-59.886c0.4725-4.1669-2.60023-9.3624-4.3833-11.2646c5.9274-5.15352 7.13406-16.4906-6.00708-16.8455c-0.64377-9.02539-11.9653-21.1441-22.7467-18.3931c6.50597-8.98301-2.03106-18.3603-12.0073-16.7702c5.25155-12.7007-0.59463-20.994-13.9117-13.3623c7.55056-17.1446-8.89342-25.8118-17.4922-6.59212c-5.36361-5.62898-18.4544-13.6945-26.6579-6.87742c-3.03472-13.1597-20.5667-11.9879-25.0775-7.59418c-6.49038-9.22625-13.2223-10.0903-20.352-7.17644c0.19573-8.43448-4.8301-17.0421-9.80201-16.8432z" /><path stroke-linecap="butt" stroke-linejoin="round" stroke="none" fill="rgb(221,221,221)" d="m-138.817-47.896c0.0987 4.02191 4.29616 9.89361-1.0381 11.4627c1.4832 6.1286 4.63543 9.92364 11.7997 12.5216c-6.06853 17.2654 11.2264 19.7123 18.5482 17.1836c-4.01634 12.1296 6.65361 6.27916 10.4021 10.7855c-1.12341 5.18993 15.2852 11.3838 18.7651 14.0802c4.55661-1.97057 11.8437-6.37133 16.4006-8.34192c10.2583 6.57222 9.88205-2.35384 21.2217 10.6491c4.126579 5.28679 15.1334-2.29367 19.9661 2.35542c2.79464-7.83826 8.56984-6.10508 16.764199-13.009c-26.257 13.5433-26.5752-14.7979-26.9595-14.3442c-21.0711-9.08597-21.6204 7.3654-38.0327-0.42094c2.95394-5.84869-3.91702-7.37112-8.206161-10.5439c-15.9916 11.8599-24.1952 12.4704-18.6703-5.9384c-18.569-4.46186-7.69222-12.9592-16.6967-18.8581c-8.47207-1.91194-3.05484-7.87739-3.04368-11.5242c-10.2992 5.90954-11.2858 1.36798-21.2192 3.94324z" /><path stroke-linecap="butt" stroke-linejoin="round" stroke="none" fill="rgb(221,221,221)" d="m149.216999-42.137c-0.0753 3.59274-3.25442 8.83804 0.78633 10.2397c-1.12354 5.47465-3.51138 8.86483-8.93848 11.1857c7.47384 14.5599-10.3573 16.8546-14.0504 15.3504c0.86075 5.7625-6.23355 9.9581-10.2664 14.7433c-2.21463 2.39689-7.94258 3.77644-11.8279 7.46825c-10.8282-5.41198-22.0371-12.6376-17.1278-1.2698c-8.070601-5.51015-17.6614 7.90013-20.779 9.32207c-4.81474-5.26871-13.6869-10.9667-18.4158-15.5078c6.53026-2.32252 16.7577 6.06529 18.4898-1.23305c5.72366-3.48184-2.56079-17.9559 1.93246-11.5809c4.4438-7.11721 19.5338 6.16475 15.8656-2.34437c16.3097 5.39495 8.4387 1.56586 19.1611-7.45057c17.6289 16.7468 21.4568-13.6564 21.2113-14.0581c5.6229-2.26636 8.26769-9.69924 7.88635-18.3875c8.14668 5.34997 8.218349 1.12092 16.0734 3.52252z" /><path stroke-linecap="butt" stroke-linejoin="round" stroke="none" fill="rgb(221,221,221)" d="m77.906999-78.071c-0.063602 2.75156-2.79606 6.76864 0.67558 7.84202c-6.53688 9.16607-4.168771 14.6731-9.05183 15.9758c0.36019 1.2948 3.50982 9.7775-10.6994 4.34693c1.33155 5.51261-13.8297 12.8149-18.9819 17.0107c-2.96565-1.34822-7.70821-4.35889-10.6738-5.70698c-6.57959 4.35017-6.5809-1.43039-13.8115 7.28544c-2.60391 3.50706-9.92348-1.49408-12.9935 1.6115c-1.81885-5.36245-5.57746-4.17675-10.9103-8.90006c17.6121 9.20324 17.0693-10.4046 17.5458-9.81353c3.81794-5.45072 16.7824 4.72124 13.6311-1.79545c7.56692 0.56165 22.6383 3.59312 18.7676-6.15188c0.57599-4.36552 17.2239 1.28782 15.9176-10.3206c11.479 2.45864 7.08352-7.83019 6.77553-14.0815c6.48663 4.03945 8.7759 1.32584 13.8102 2.69773z" /><path stroke-linecap="butt" stroke-linejoin="round" stroke-width="6" stroke-opacity="1" stroke="rgb(68,68,68)" fill="none" d="m175.394-9.409c0.69057-4.21989-2.51445-9.65481-4.34663-11.6094c5.92739-5.15351 7.13351-16.4906-6.00763-16.8455c-0.64377-9.02539-11.966-21.1437-22.7474-18.3928c6.50597-8.98301-2.030131-18.3603-12.0064-16.7702c5.25155-12.7007-0.59585-20.993-13.9128-13.3612c7.55056-17.1446-8.89251-25.8125-17.4913-6.59288c-5.36361-5.62898-18.4534-13.6941-26.657-6.87696c-3.03471-13.1597-20.5674-11.9884-25.0782-7.59462c-6.49038-9.22625-13.222-10.0908-20.3518-7.17701c0.3132-13.4951-12.741-27.435-17.5536-5.03443l0.003 0.001c-4.11722-0.58233-8.43117 1.76021-12.3757 3.77332c-0.51743-11.0892-18.7884-18.8543-14.8788 2.039089c-7.19024-4.00903-20.4829-1.42089-24.5302 5.98533c-8.04424-9.32727-18.4262-3-21.0932 3.19815c-9.39046-15.0645-17.4588-10.9155-18.173 5.23413c-20.5634-6.14056-22.367 5.80033-21.6866 14.4234c-8.41689-6.0688-16.769401-6.57324-21.3269 4.83409c-8.86888-4.2363-13.4311-0.1305-17.3991 5.41614c-16.7499-13.7929-27.2894 1.65062-7.32321 18.2224c-12.4841 0.49306-17.3692 3.73211-16.337 16.8651c-10.1985-7.0903-17.8977 9.6436-5.11197 15.9875c-2.3459 1.035409-6.09759 6.4462-7.62512 10.4909" /><path stroke-linecap="butt" stroke-linejoin="round" stroke-width="6" stroke-opacity="1" stroke="rgb(68,68,68)" fill="none" d="m195-55.632001a195 105.759 0 0 1-195 105.764a195 105.759 0 0 1-195-105.764a195 105.759 0 0 1 195-105.764a195 105.759 0 0 1 195 105.759z" /></g></svg></svg>